<svg width="32" height="32" viewBox="0 0 32 32" fill="none" xmlns="http://www.w3.org/2000/svg">
<path d="M14.668 20H10.668C8.18295 20 6.94044 20 5.96032 20.406C4.65351 20.9473 3.61525 21.9855 3.07394 23.2924C2.66797 24.2725 2.66797 25.515 2.66797 28M20.668 4.38768C22.6225 5.17886 24.0013 7.09508 24.0013 9.33333M16.0011 28.6667L18.7012 28.1267C18.9367 28.0796 19.0544 28.056 19.1642 28.013C19.2616 27.9748 19.3542 27.9252 19.44 27.8654C19.5367 27.7979 19.6216 27.713 19.7914 27.5433L28.668 18.6667C29.4044 17.9303 29.4044 16.7364 28.668 16C27.9316 15.2636 26.7377 15.2636 26.0013 16L17.1247 24.8766C16.9549 25.0464 16.87 25.1313 16.8026 25.228C16.7427 25.3138 16.6932 25.4064 16.655 25.5038C16.6119 25.6135 16.5884 25.7312 16.5413 25.9666L16.0011 28.6667ZM18.0013 9.33333C18.0013 12.2789 15.6135 14.6667 12.668 14.6667C9.72245 14.6667 7.33464 12.2789 7.33464 9.33333C7.33464 6.38781 9.72245 4 12.668 4C15.6135 4 18.0013 6.38781 18.0013 9.33333Z" stroke="black" stroke-width="3" stroke-linecap="round" stroke-linejoin="round"/>
</svg>
